HIERARCHY
ROOT root
{
	OFFSET	0	13.1	24.9
	CHANNELS 6  Xposition Yposition Zposition Xrotation Yrotation Zrotation
	JOINT spine_1
	{
		OFFSET	0	9.99999	0
		CHANNELS 3  Xrotation Yrotation Zrotation
		JOINT spine_2
		{
			OFFSET	0	112	-10
			CHANNELS 3  Xrotation Yrotation Zrotation
			JOINT spine_3
			{
				OFFSET	0	206.5	19.3
				CHANNELS 3  Xrotation Yrotation Zrotation
				JOINT spine_4
				{
					OFFSET	0	110.4	14.6
					CHANNELS 3  Xrotation Yrotation Zrotation
					JOINT neck_1
					{
						OFFSET	0	71.8	-50.3
						CHANNELS 3  Xrotation Yrotation Zrotation
						JOINT neck_2
						{
							OFFSET	0	86.2	-25.8
							CHANNELS 3  Xrotation Yrotation Zrotation
							JOINT head_ee
							{
								OFFSET	0	179.8	-8.7
								CHANNELS 3  Xrotation Yrotation Zrotation
								End Site
								{
									OFFSET	1	0	0
								}
							}
						}
					}
					JOINT left_clavicle
					{
						OFFSET	-43.2	22.4	-70.8
						CHANNELS 3  Xrotation Yrotation Zrotation
						JOINT left_shoulder
						{
							OFFSET	-93.9	-5.79999	48.7
							CHANNELS 3  Xrotation Yrotation Zrotation
							JOINT left_elbow
							{
								OFFSET	-291.4	-30.8	15.2
								CHANNELS 3  Xrotation Yrotation Zrotation
								JOINT left_lowarm_twist
								{
									OFFSET	-110.7	-3.89999	13.6
									CHANNELS 3  Xrotation Yrotation Zrotation
									JOINT left_hand
									{
										OFFSET	-110.7	-3.89999	13.6
										CHANNELS 3  Xrotation Yrotation Zrotation
										JOINT left_ee
										{
											OFFSET	-80.8	-5.10001	12.1
											CHANNELS 3  Xrotation Yrotation Zrotation
											End Site
											{
												OFFSET	1	0	0
											}
										}
									}
								}
							}
						}
					}
					JOINT right_clavicle
					{
						OFFSET	43.2	22.4	-70.8
						CHANNELS 3  Xrotation Yrotation Zrotation
						JOINT right_shoulder
						{
							OFFSET	93.9	-5.79999	48.7
							CHANNELS 3  Xrotation Yrotation Zrotation
							JOINT right_elbow
							{
								OFFSET	291.4	-30.8	15.2
								CHANNELS 3  Xrotation Yrotation Zrotation
								JOINT right_lowarm_twist
								{
									OFFSET	110.7	-3.89999	13.6
									CHANNELS 3  Xrotation Yrotation Zrotation
									JOINT right_hand
									{
										OFFSET	110.7	-3.89999	13.6
										CHANNELS 3  Xrotation Yrotation Zrotation
										JOINT right_ee
										{
											OFFSET	80.8	-5.10001	12.1
											CHANNELS 3  Xrotation Yrotation Zrotation
											End Site
											{
												OFFSET	1	0	0
											}
										}
									}
								}
							}
						}
					}
				}
			}
		}
	}
	JOINT left_hip
	{
		OFFSET	-82.8	-127.5	0.300001
		CHANNELS 3  Xrotation Yrotation Zrotation
		JOINT left_knee
		{
			OFFSET	-28.2	-396.7	2.2
			CHANNELS 3  Xrotation Yrotation Zrotation
			JOINT left_ankle
			{
				OFFSET	-11.7	-411.3	35.4
				CHANNELS 3  Xrotation Yrotation Zrotation
				JOINT left_toes
				{
					OFFSET	0	-60	-88.6
					CHANNELS 3  Xrotation Yrotation Zrotation
					JOINT left_foot_ee
					{
						OFFSET	-22.5	-16.5	-42.2
						CHANNELS 3  Xrotation Yrotation Zrotation
						End Site
						{
							OFFSET	1	0	0
						}
					}
				}
			}
		}
	}
	JOINT right_hip
	{
		OFFSET	82.8	-127.5	0.300001
		CHANNELS 3  Xrotation Yrotation Zrotation
		JOINT right_knee
		{
			OFFSET	28.2	-396.7	2.2
			CHANNELS 3  Xrotation Yrotation Zrotation
			JOINT right_ankle
			{
				OFFSET	11.7	-411.3	35.4
				CHANNELS 3  Xrotation Yrotation Zrotation
				JOINT right_toes
				{
					OFFSET	0	-60	-88.6
					CHANNELS 3  Xrotation Yrotation Zrotation
					JOINT right_foot_ee
					{
						OFFSET	22.5	-16.5	-42.2
						CHANNELS 3  Xrotation Yrotation Zrotation
						End Site
						{
							OFFSET	1	0	0
						}
					}
				}
			}
		}
	}
}
MOTION
Frames: 5
Frame Time: 0.02
1515.65 682.015 -880.713 -172.953 -45.9691 -177.266 -0.915893 0.753516 3.8112 -0.907959 0.509657 3.85134 -0.867099 -0.369918 3.86724 -0.887881 0.24501 3.87714 3.06477 -4.80717 -4.86491 3.12663 -4.21293 -5.76307 -0.0 0.0 -0.0 1.09406 23.9878 4.25216 -10.177 -22.4049 69.0783 0.516388 -14.3489 0.0650017 -2.84083 -0.108716 0.346415 -0.833038 25.3462 5.32738 -0.0 0.0 -0.0 10.0994 23.8534 -19.3031 9.16035 29.6142 -55.6298 1.90422 43.3241 -0.756381 -21.4746 1.22912 -2.43927 1.47662 -19.1643 -16.8479 0.0 0.0 0.0 37.2231 4.34902 -9.39097 -17.3445 0.317798 2.63255 11.4139 28.4252 -1.72472 -24.5742 0.0 0.0 -0.0 0.0 -0.0 6.026 9.04046 11.9338 -38.6329 0.382092 -5.80595 17.5155 -13.3481 2.43145 10.2341 -0.0 -0.0 0.0 0.0 0.0 
1548.16 682.393 -872.243 -172.763 -47.0658 -177.435 -0.44871 0.752226 3.76827 -0.440957 0.511096 3.80841 -0.40155 -0.327697 3.82853 -0.42189 0.280603 3.83226 4.36801 -4.66213 -4.51355 4.42108 -4.11407 -5.37893 -0.0 0.0 -0.0 1.22134 23.9412 4.42123 -9.8579 -21.3093 67.1524 0.542205 -15.0345 0.0715494 -5.91697 -0.245674 0.715037 -0.987984 24.4195 4.0648 -0.0 0.0 -0.0 10.1271 22.282 -19.5071 7.16995 29.6274 -56.9264 1.65219 39.2954 -0.589906 -21.6118 1.23983 -2.4532 1.59416 -22.3283 -18.5398 0.0 0.0 0.0 37.5559 4.41226 -8.07092 -21.7666 0.270465 3.30925 15.0845 28.8314 -2.25761 -23.2273 0.0 0.0 -0.0 0.0 -0.0 5.64894 11.6246 11.4228 -41.7604 0.582546 -6.24294 15.4698 -18.8155 2.1967 11.5341 -0.0 -0.0 0.0 0.0 0.0 
1576.89 682.813 -870.681 -172.266 -48.0729 -176.779 -0.51765 0.772014 3.72213 -0.510102 0.533773 3.76363 -0.469531 -0.300278 3.78938 -0.489439 0.30151 3.78928 2.05621 -4.79365 -5.02261 2.12232 -4.17622 -5.92338 -0.0 0.0 -0.0 1.19698 23.5706 4.36091 -8.51671 -22.6076 67.3431 0.629863 -17.3288 0.0959832 -6.43382 -0.270623 0.776238 -0.963376 21.2887 2.8778 -0.0 0.0 -0.0 9.50608 24.5684 -17.9073 5.42067 29.3731 -57.205 1.51325 36.8535 -0.504202 -20.4159 1.14761 -2.33088 2.4835 -25.3386 -24.8815 0.0 0.0 0.0 38.2951 5.65389 -7.74667 -25.5746 0.187976 3.88768 17.3855 26.5166 -2.54209 -23.9326 0.0 0.0 -0.0 0.0 -0.0 8.35927 14.3272 11.5316 -48.6803 1.10919 -7.1676 6.25837 -15.799 0.908613 7.89817 -0.0 -0.0 0.0 0.0 0.0 
1603.41 684.167 -863.326 -172.709 -49.3385 -176.642 -0.646032 0.807364 3.64648 -0.638819 0.573855 3.69038 -0.596206 -0.253322 3.72608 -0.615417 0.337905 3.71937 1.78168 -4.30982 -4.44774 1.83412 -3.84268 -5.24852 -0.0 0.0 -0.0 1.62005 23.0638 4.90838 -7.11821 -22.8215 65.2973 0.682047 -18.6684 0.112109 -7.00983 -0.299078 0.844181 -1.02149 18.9682 1.53454 -0.0 0.0 -0.0 9.18221 24.5672 -17.1863 2.85687 30.269 -56.9395 1.36128 33.9914 -0.416091 -19.8969 1.1084 -2.27722 2.73458 -26.8037 -26.7838 0.0 0.0 0.0 37.4024 6.12121 -7.13724 -26.1426 0.17238 3.97347 18.7721 27.7203 -2.75086 -22.8025 0.0 0.0 -0.0 0.0 -0.0 8.50597 15.5703 10.7458 -51.9795 1.3989 -7.58492 3.28362 -15.3371 0.48017 7.46954 -0.0 -0.0 0.0 0.0 0.0 
1632.8 692.011 -860.64 -173.671 -49.5769 -177.188 -0.566095 0.730927 3.40005 -0.559811 0.513223 3.43961 -0.524266 -0.252901 3.46845 -0.540928 0.297712 3.46489 2.60186 -4.05663 -3.16808 2.63487 -4.40068 -3.81904 -0.0 0.0 -0.0 2.60127 24.0333 6.30069 -3.61104 -20.8628 64.4636 0.627081 -17.2569 0.0951565 -8.15801 -0.357834 0.978753 -2.08713 20.9866 -3.85772 -0.0 0.0 -0.0 9.94158 22.8539 -19.0413 0.201999 27.1692 -56.6895 1.31765 33.132 -0.391974 -21.6171 1.24024 -2.45374 2.18468 -29.1813 -23.8615 0.0 0.0 0.0 35.3491 4.10999 -5.58237 -26.5367 0.161062 4.03288 21.5175 27.9207 -3.12236 -23.7399 0.0 0.0 -0.0 0.0 -0.0 9.61185 14.9747 10.3207 -54.2534 1.61243 -7.86267 2.13695 -18.8935 0.316434 6.86203 -0.0 -0.0 0.0 0.0 0.0 
